<svg xmlns="http://www.w3.org/2000/svg" version="1.1" xmlns:xlink="http://www.w3.org/1999/xlink" xmlns:svgjs="http://svgjs.dev/svgjs" width="1920" height="1080" preserveAspectRatio="none" viewBox="0 0 1920 1080"><g mask="url(&quot;#SvgjsMask2819&quot;)" fill="none"><rect width="1920" height="1080" x="0" y="0" fill="url(&quot;#SvgjsRadialGradient2820&quot;)"></rect><path d="M1920 0L1217.6100000000001 0L1920 337.02z" fill="rgba(255, 255, 255, .1)"></path><path d="M1217.6100000000001 0L1920 337.02L1920 348.2L934.94 0z" fill="rgba(255, 255, 255, .075)"></path><path d="M934.94 0L1920 348.2L1920 611.65L637.3900000000001 0z" fill="rgba(255, 255, 255, .05)"></path><path d="M637.3900000000001 0L1920 611.65L1920 935.5799999999999L589.1300000000001 0z" fill="rgba(255, 255, 255, .025)"></path><path d="M0 1080L764.37 1080L0 603.6700000000001z" fill="rgba(0, 0, 0, .1)"></path><path d="M0 603.6700000000001L764.37 1080L911.45 1080L0 281.7200000000001z" fill="rgba(0, 0, 0, .075)"></path><path d="M0 281.72L911.45 1080L1507.97 1080L0 173.40000000000003z" fill="rgba(0, 0, 0, .05)"></path><path d="M0 173.4000000000001L1507.97 1080L1544.73 1080L0 91.50000000000009z" fill="rgba(0, 0, 0, .025)"></path></g><defs><mask id="SvgjsMask2819"><rect width="1920" height="1080" fill="#ffffff"></rect></mask><radialGradient cx="0%" cy="0%" r="2202.91" gradientUnits="userSpaceOnUse" id="SvgjsRadialGradient2820"><stop stop-color="rgba(237, 206, 12, 1)" offset="0"></stop><stop stop-color="rgba(217, 66, 80, 1)" offset="1"></stop></radialGradient></defs></svg>